<svg xmlns="http://www.w3.org/2000/svg" xmlns:xlink="http://www.w3.org/1999/xlink" version="1.1" xml:space="preserve" width="1034.999999254942" height="1034.999999254942"><rect id="backgroundrect" width="100%" height="100%" x="0" y="0" fill="none" stroke="none"/>
<style type="text/css">
	.st0{fill:#5802BC;}
	.st1{fill:#6600CC;}
	.st2{fill:#848484;}
	.st3{fill:#C4C4C4;}
	.st4{fill:#7C7C7C;}
	.st5{fill:#672091;}
	.st6{fill:#7A22A7;}
</style>


<g class="currentLayer"><title>Layer 1</title><g id="Grafica" class="">
	<g id="Capa_6">
		<g id="svg_1">
			<g transform="translate(0,340) scale(0.10000000149011612,-0.10000000149011612) " id="svg_2">
				<path class="st0" d="M3259.7,-352.50006103515625 c-49,-61.2 -1824.2,-4766.5 -1824.2,-4841.6 c0,-122.4 162.6,-189.1 237.4,-94.6 c20.6,25 397.3,1001.1 836,2166.4 c436,1168 802.4,2110.7 812.8,2099.6 c7.7,-11.1 190.9,-864.9 407.7,-1896.6 C3977,-4098.400061035156 4137,-4813.100061035157 4162.8,-4843.700061035156 c56.8,-69.5 141.9,-64 206.4,11.1 c28.4,36.2 242.5,456.1 474.7,937.2 l423.1,870.4 l201.3,-884.3 c209,-923.3 242.5,-1012.3 366.4,-1012.3 c80,0 131.6,72.3 387,536.7 c123.8,225.3 229.6,406 232.2,403.2 c2.6,-5.6 72.2,-194.7 154.8,-425.5 c80,-228 165.1,-439.4 188.4,-467.2 c56.8,-69.5 162.6,-50.1 209,38.9 c33.5,66.7 23.2,108.5 -178,681.3 c-118.7,333.7 -227.1,625.7 -240,645.2 c-15.5,22.2 -64.5,33.4 -118.7,27.8 c-87.7,-8.3 -98,-22.2 -340.6,-464.4 l-250.3,-453.3 l-209,926.1 c-121.3,531.2 -229.6,948.3 -252.9,976.1 c-56.8,69.5 -141.9,64 -206.4,-11.1 c-28.4,-36.2 -234.8,-439.4 -456.7,-898.2 c-224.5,-458.9 -415.4,-842.6 -425.7,-853.8 c-10.3,-11.1 -201.3,851 -425.7,1916.1 C3649.3,-1133.9000610351563 3481.6000000000004,-385.80006103515626 3455.8,-355.30006103515626 C3401.6000000000004,-291.30006103515626 3313.8999999999996,-291.30006103515626 3259.7,-352.50006103515625 z" id="svg_3"/>
			</g>
		</g>
		<g id="svg_4">
			<g transform="translate(0,340) scale(0.10000000149011612,-0.10000000149011612) " id="svg_5">
				<path class="st1" d="M3264.7,-451.1000610351563 c-47.4,-59.3 -1763.6,-4622.7 -1763.6,-4695.5 c0,-118.7 157.2,-183.4 229.5,-91.7 c20,24.3 384.1,970.9 808.2,2101 c421.6,1132.8 775.8,2047 785.8,2036.3 c7.5,-10.8 184.6,-838.8 394.1,-1839.4 c239.5,-1143.5 394.1,-1836.7 419.1,-1866.3 c54.9,-67.4 137.2,-62 199.6,10.8 c27.4,35.1 234.5,442.3 459,908.9 l409.1,844.2 l194.6,-857.7 c202.1,-895.4 234.5,-981.7 354.2,-981.7 c77.3,0 127.2,70.1 374.2,520.5 c119.7,218.5 222,393.8 224.5,391.1 c2.5,-5.4 69.8,-188.8 149.7,-412.6 c77.3,-221.2 159.6,-426.1 182.1,-453.1 c54.9,-67.4 157.2,-48.5 202.1,37.8 c32.4,64.7 22.5,105.2 -172.1,660.8 c-114.7,323.6 -219.5,606.8 -232,625.7 c-15,21.6 -62.4,32.4 -114.7,27 c-84.8,-8.1 -94.8,-21.6 -329.3,-450.4 l-242,-439.6 l-202.1,898.1 c-117.2,515.1 -222,919.7 -244.5,946.7 c-54.9,67.4 -137.2,62 -199.6,-10.8 c-27.4,-35.1 -227,-426.1 -441.5,-871.1 c-217,-445 -401.6,-817.2 -411.6,-828 c-10,-10.8 -194.6,825.3 -411.6,1858.3 C3641.3,-1209.0000610351562 3479.2,-483.50006103515625 3454.2,-453.80006103515626 C3401.8999999999996,-391.80006103515626 3317,-391.80006103515626 3264.7,-451.1000610351563 z" id="svg_6"/>
			</g>
		</g>
	</g>
</g><g id="Logo" class="">
	<g id="Luna">
		<g id="svg_7">
			<g id="svg_8">
				<path class="st2" d="M478.6,257.40000610351564 c0,124.9 95.6,226.2 213.5,226.2 c29.3,0 57.2,-6.3 82.7,-17.6 c-31.3,73.8 -110.7,126.4 -204,126.4 c-120.6,0 -218.4,-87.7 -218.4,-195.8 c0,-79.7 53.3,-148.2 129.7,-178.8 C479.9,230.70000610351562 478.6,243.90000610351564 478.6,257.40000610351564 L478.6,257.40000610351564 z" id="svg_9"/>
			</g>
		</g>
		<g id="svg_10">
			<g id="svg_11">
				<path class="st3" d="M477.9,263.40000610351564 c0,121.6 93,220.1 207.8,220.1 c28.5,0 55.7,-6.1 80.4,-17.1 c-30.4,71.8 -107.7,123 -198.5,123 c-117.3,0 -212.5,-85.3 -212.5,-190.5 c0,-77.6 51.9,-144.3 126.2,-174 C479.20000000000005,237.40000610351564 477.9,250.20000610351562 477.9,263.40000610351564 L477.9,263.40000610351564 z" id="svg_12"/>
			</g>
		</g>
	</g>
	<g id="Estrella">
		<g id="svg_13">
			<g id="svg_14">
				<g transform="translate(0,511) scale(0.10000000149011612,-0.10000000149011612) " id="svg_15">
					<path class="st0" d="M7006.200000000001,2724.399938964844 c-3.6,-1.7000000000000002 -8.3,-5 -10.3,-7.2 c-2.2,-2.4 -34.1,-64.3 -71.2,-137.7 c-37.3,-73.4 -70.9,-138.1 -75,-143.6 c-9.1,-12.2 -27,-24.3 -42.2,-28.9 c-6,-1.7000000000000002 -78.3,-12.6 -160.6,-24.1 c-96.2,-13.5 -152.2,-22.2 -157.3,-24.5 c-15.6,-7.4 -22.8,-28.4 -14.5,-43.7 c1.8,-3.5 54,-54.3 116,-113.2 c101.3,-96.2 113.3,-108.6 119.8,-121 c12.3,-24.5 12.3,-25.8 -17.2,-191.8 c-15.6,-88.4 -25.7,-149.9 -25,-154.6 c2.2,-16.9 18.5,-29.3 35.9,-27.4 c6.5,0.9 49.7,21.9 144.1,70.4 c74.3,38 140.1,70.8 146.1,73 c14.3,4.8 37,4.8 51.3,0 c6.2,-2.2 71.8,-35 146.1,-73 c94.4,-48.4 137.7,-69.5 144.1,-70.4 c17.4,-2 33.7,10.4 35.9,27.4 c0.4,4.8 -9.6,67.1 -25,154.6 c-29.5,165.9 -29.7,167.2 -17.2,191.8 c6.5,12.6 18.5,24.8 120,121 c62,58.9 114.2,109.9 116,113.2 c8,15.2 1.1,36 -14.7,43.7 c-5.4,2.6 -57.1,10.9 -162.2,25.4 c-172.2,24.1 -169.6,23.7 -190.1,43.7 c-9.4,9.1 -17.6,24.1 -64,115.5 c-83.4,164.6 -88.3,174 -95,178.5 C7032.799999999999,2726.799938964844 7015.200000000001,2728.299938964844 7006.200000000001,2724.399938964844 z" id="svg_16"/>
				</g>
			</g>
		</g>
		<g id="svg_17">
			<g id="svg_18">
				<g transform="translate(0,511) scale(0.10000000149011612,-0.10000000149011612) " id="svg_19">
					<path class="st1" d="M7018.9,2674.5999389648437 c-2.9,-1.6 -6.8,-4.6 -8.4,-6.5 c-1.8,-2.2 -28,-58.7 -58.3,-125.7 c-30.5,-67 -58.1,-126.1 -61.4,-131.1 c-7.5,-11.1 -22.1,-22.2 -34.6,-26.4 c-4.9,-1.6 -64.2,-11.5 -131.7,-22 c-78.8,-12.3 -124.7,-20.2 -128.9,-22.4 c-12.8,-6.7 -18.7,-26 -11.9,-39.9 c1.5,-3.2 44.2,-49.6 95.1,-103.3 c83,-87.9 92.9,-99.2 98.2,-110.5 c10.1,-22.4 10.1,-23.6 -14.1,-175.1 c-12.8,-80.7 -21,-136.8 -20.5,-141.2 c1.8,-15.5 15.2,-26.8 29.4,-25 c5.3,0.8 40.8,20 118.1,64.3 c60.9,34.7 114.8,64.7 119.8,66.6 c11.7,4.4 30.4,4.4 42.1,0 c5.1,-2 58.9,-31.9 119.8,-66.6 c77.4,-44.2 112.8,-63.5 118.1,-64.3 c14.3,-1.8 27.6,9.5 29.4,25 c0.4,4.4 -7.9,61.3 -20.5,141.2 c-24.1,151.5 -24.3,152.7 -14.1,175.1 c5.3,11.5 15.2,22.6 98.4,110.5 c50.8,53.7 93.6,100.4 95.1,103.3 c6.6,13.9 0.9,32.9 -12.1,39.9 c-4.4,2.4 -46.8,9.9 -132.9,23.2 c-141.2,22 -139,21.6 -155.8,39.9 c-7.7,8.3 -14.4,22 -52.5,105.5 c-68.4,150.3 -72.4,158.9 -77.9,163 C7040.6,2676.799938964844 7026.200000000001,2678.1999389648436 7018.9,2674.5999389648437 z" id="svg_20"/>
				</g>
			</g>
		</g>
	</g>
	<g id="Cara">
		<path class="st4" d="M498,447.1000061035156 c-2.3,0.6000000000000001 -3.6,2.2 -3.6,4 c0.1,1.3 0.4,1.7000000000000002 2.9,3.6 c9.2,7.2 21.7,12.1 32.5,13 c5.9,0.4 13.5,-0.4 18.9,-2 c7.4,-2.3 15.3,-6.8 21.8,-12.3 c3.8,-3.3 4.3,-3.9 4.2,-5.4 c-0.1,-1.5 -0.9,-2.4 -2.6,-3.1 c-1.3,-0.5 -3.9,-0.5 -5.3,0.1 c-0.5,0.2 -2,1.4 -3.5,2.6 c-6.7,5.8 -13.2,9.3 -20.7,11.1 c-3.5,0.9 -10,1.2 -13.8,0.7000000000000001 c-8.3,-1.1 -17.2,-4.9 -24,-10.2 c-1,-0.8 -2.1,-1.5 -2.6,-1.7000000000000002 C501.29999999999995,446.90000610351564 499.1,446.8000061035156 498,447.1000061035156 z" id="svg_21"/>
		<path class="st4" d="M431.70000000000005,357.6000061035156 c-1.7000000000000002,0.6000000000000001 -2.8,2.1 -2.7,3.9 c0.1,1.3 0.30000000000000004,1.7000000000000002 2.3,3.7 c7.2,7.3 16.8,12.4 25.1,13.3 c4.6,0.5 10.4,-0.2 14.5,-1.8 c5.6,-2.2 11.7,-6.6 16.6,-12 c2.9,-3.2 3.3,-3.8 3.2,-5.4 c-0.1,-1.5 -0.7000000000000001,-2.4 -2,-3.2 c-1,-0.6000000000000001 -3,-0.5 -4,0 c-0.30000000000000004,0.2 -1.5,1.4 -2.7,2.6 c-5.1,5.7 -10,9.1 -15.8,10.9 c-2.7,0.8 -7.6,1.1 -10.6,0.5 c-6.4,-1.2 -13.3,-5 -18.5,-10.5 c-0.7000000000000001,-0.8 -1.6,-1.5 -2,-1.7000000000000002 C434.29999999999995,357.5000061035156 432.6,357.3000061035156 431.70000000000005,357.6000061035156 z" id="svg_22"/>
	</g>
	<path id="Calendario_1_" class="st5" d="M883.9000000000001,76.10000610351562 H742.5 V41.100006103515625 c0,-19.3 -15.9,-35.1 -35.4,-35.1 h-35.4 c-19.5,0 -35.4,15.7 -35.4,35.1 V76.10000610351562 H353.6 V41.100006103515625 c0,-19.3 -15.9,-35.1 -35.4,-35.1 h-35.4 c-19.5,0 -35.4,15.7 -35.4,35.1 V76.10000610351562 H106.10000000000002 C47.5,76.10000610351562 0,123.20000610351562 0,181.3000061035156 v701.4 c0,58.1 47.5,105.2 106.1,105.2 h777.9 c58.6,0 106.1,-47.1 106.1,-105.2 V181.3000061035156 C990,123.20000610351562 942.5,76.10000610351562 883.9000000000001,76.10000610351562 zM919.3,917.8000061035157 H70.69999999999999 V146.3000061035156 h176.8 v35.1 c0,19.3 15.9,35.1 35.4,35.1 h35.4 c19.5,0 35.4,-15.7 35.4,-35.1 V146.3000061035156 h282.9 v35.1 c0,19.3 15.9,35.1 35.4,35.1 h35.4 c19.5,0 35.4,-15.7 35.4,-35.1 V146.3000061035156 h176.8 V917.8000061035157 z"/>
	<path id="Calendario_2_" class="st5" d="M872.5999999999999,69.80000610351563 H734.7 v-34.9 c0,-19.2 -15.5,-34.9 -34.5,-34.9 h-34.5 c-19,0 -34.5,15.7 -34.5,34.9 v34.9 H355.5 v-34.9 c0,-19.2 -15.5,-34.9 -34.5,-34.9 h-34.5 c-19,0 -34.5,15.7 -34.5,34.9 v34.9 H114.19999999999999 c-57.1,0 -103.4,46.9 -103.4,104.7 v697.9 c0,57.8 46.3,104.7 103.4,104.7 h758.4 c57.1,0 103.4,-46.9 103.4,-104.7 V174.50000610351563 C976.0999999999999,116.60000610351562 929.8,69.80000610351563 872.5999999999999,69.80000610351563 zM907.0999999999999,907.2000061035156 H79.69999999999999 V139.60000610351562 h172.4 v34.9 c0,19.2 15.5,34.9 34.5,34.9 H321 c19,0 34.5,-15.7 34.5,-34.9 V139.60000610351562 h275.8 v34.9 c0,19.2 15.5,34.9 34.5,34.9 h34.5 c19,0 34.5,-15.7 34.5,-34.9 V139.60000610351562 h172.4 V907.2000061035156 z"/>
	<path id="Calendario" class="st6" d="M879,72.00000610351563 H739 v-35 c0,-19.3 -15.7,-35 -35,-35 h-35 c-19.3,0 -35,15.7 -35,35 v35 H354 v-35 c0,-19.3 -15.7,-35 -35,-35 h-35 c-19.3,0 -35,15.7 -35,35 v35 H109 c-58,0 -105,47 -105,105 v700 c0,58 47,105 105,105 h770 c58,0 105,-47 105,-105 v-700 C984,119.00000610351563 937,72.00000610351563 879,72.00000610351563 zM914,912.0000061035156 H74 v-770 h175 v35 c0,19.3 15.7,35 35,35 h35 c19.3,0 35,-15.7 35,-35 v-35 h280 v35 c0,19.3 15.7,35 35,35 h35 c19.3,0 35,-15.7 35,-35 v-35 h175 V912.0000061035156 z"/>
</g></g></svg>